# xmcd CD database file
#
# Track frame offsets:
#	150
#	17520
#	42025
#	59352
#
# Disc length: 1115 seconds
#
# Revision: 0
# Processed by: cddbd v1.5.1PL0 Copyright (c) Steve Scherf et al.
# Submitted via: CDex 1.60beta1
#
DISCID=26045904
DTITLE=吉川ひなの - ウサギちゃん SAY GOOD BYE
DYEAR=1999
DGENRE=JPop
TTITLE0=ウサギちゃん SAY GOOD BYE
TTITLE1=知ってるよ
TTITLE2=ウサギちゃん SAY GOOD BYE (Instrumental)
TTITLE3=知ってるよ (Instrumental)
EXTD=YEAR: 1999
EXTT0=
EXTT1=
EXTT2=
EXTT3=
PLAYORDER=
